<svg width="1841" height="416" viewBox="0 0 1841 416" fill="none" xmlns="http://www.w3.org/2000/svg" preserveAspectRatio="none">
<g clip-path="url(#clip0_205_2)">
<path d="M1841 0C1841 54.6299 1817.19 108.725 1770.93 159.196C1724.67 209.668 1656.87 255.527 1571.39 294.156C1485.92 332.786 1384.44 363.428 1272.76 384.334C1161.08 405.24 1041.38 416 920.5 416C799.618 416 679.92 405.24 568.24 384.334C456.56 363.428 355.084 332.786 269.608 294.156C184.132 255.527 116.328 209.668 70.0689 159.196C23.8094 108.725 -1.05678e-05 54.6299 0 -3.63679e-05L920.5 0L1841 0Z" fill="#3E4668"/>
</g>
<defs>
<clipPath id="clip0_205_2">
<rect width="1841" height="416" fill="white"/>
</clipPath>
</defs>
</svg>